<mxfile host="app.diagrams.net" agent="Mozilla/5.0 (Windows NT 10.0; Win64; x64) AppleWebKit/537.36 (KHTML, like Gecko) Chrome/134.0.0.0 Safari/537.36" version="26.1.3">
  <diagram name="Page-1" id="2a216829-ef6e-dabb-86c1-c78162f3ba2b">
    <mxGraphModel dx="1173" dy="613" grid="1" gridSize="10" guides="1" tooltips="1" connect="1" arrows="1" fold="1" page="1" pageScale="1" pageWidth="850" pageHeight="1100" background="none" math="0" shadow="0">
      <root>
        <mxCell id="0" />
        <mxCell id="1" parent="0" />
        <mxCell id="7a84cebc1def654-1" value="abertura do app" style="shape=mxgraph.bpmn.shape;html=1;verticalLabelPosition=bottom;labelBackgroundColor=#ffffff;verticalAlign=top;perimeter=ellipsePerimeter;outline=standard;symbol=general;" parent="1" vertex="1">
          <mxGeometry x="260" y="265" width="50" height="50" as="geometry" />
        </mxCell>
        <mxCell id="BAjG6atXqVWXZ9zUJh5G-3" value="" style="edgeStyle=orthogonalEdgeStyle;rounded=0;orthogonalLoop=1;jettySize=auto;html=1;" edge="1" parent="1" source="7a84cebc1def654-2" target="7a84cebc1def654-9">
          <mxGeometry relative="1" as="geometry" />
        </mxCell>
        <mxCell id="7a84cebc1def654-2" value="tela inicial&lt;br&gt;(tela 1)" style="shape=ext;rounded=1;html=1;whiteSpace=wrap;" parent="1" vertex="1">
          <mxGeometry x="360" y="250" width="120" height="80" as="geometry" />
        </mxCell>
        <mxCell id="BAjG6atXqVWXZ9zUJh5G-12" value="" style="edgeStyle=orthogonalEdgeStyle;rounded=0;orthogonalLoop=1;jettySize=auto;html=1;" edge="1" parent="1" source="7a84cebc1def654-3" target="BAjG6atXqVWXZ9zUJh5G-11">
          <mxGeometry relative="1" as="geometry" />
        </mxCell>
        <mxCell id="7a84cebc1def654-3" value="sobre o BACMA&lt;br&gt;(tela 2)" style="shape=ext;rounded=1;html=1;whiteSpace=wrap;" parent="1" vertex="1">
          <mxGeometry x="580" y="105" width="120" height="80" as="geometry" />
        </mxCell>
        <mxCell id="BAjG6atXqVWXZ9zUJh5G-21" value="" style="edgeStyle=orthogonalEdgeStyle;rounded=0;orthogonalLoop=1;jettySize=auto;html=1;" edge="1" parent="1" source="7a84cebc1def654-8" target="BAjG6atXqVWXZ9zUJh5G-20">
          <mxGeometry relative="1" as="geometry" />
        </mxCell>
        <mxCell id="7a84cebc1def654-8" value="iniciar&lt;br&gt;(tela 3)" style="shape=ext;rounded=1;html=1;whiteSpace=wrap;" parent="1" vertex="1">
          <mxGeometry x="580" y="396" width="120" height="80" as="geometry" />
        </mxCell>
        <mxCell id="BAjG6atXqVWXZ9zUJh5G-5" style="edgeStyle=orthogonalEdgeStyle;rounded=0;orthogonalLoop=1;jettySize=auto;html=1;entryX=0.5;entryY=0;entryDx=0;entryDy=0;" edge="1" parent="1" source="7a84cebc1def654-9" target="7a84cebc1def654-8">
          <mxGeometry relative="1" as="geometry" />
        </mxCell>
        <mxCell id="BAjG6atXqVWXZ9zUJh5G-6" style="edgeStyle=orthogonalEdgeStyle;rounded=0;orthogonalLoop=1;jettySize=auto;html=1;entryX=0.5;entryY=1;entryDx=0;entryDy=0;" edge="1" parent="1" target="7a84cebc1def654-3">
          <mxGeometry relative="1" as="geometry">
            <mxPoint x="565" y="240" as="sourcePoint" />
          </mxGeometry>
        </mxCell>
        <mxCell id="7a84cebc1def654-9" value="" style="shape=mxgraph.bpmn.shape;html=1;verticalLabelPosition=bottom;labelBackgroundColor=#ffffff;verticalAlign=top;perimeter=rhombusPerimeter;background=gateway;outline=none;symbol=parallelGw;" parent="1" vertex="1">
          <mxGeometry x="540" y="265" width="50" height="50" as="geometry" />
        </mxCell>
        <mxCell id="7a84cebc1def654-26" value="" style="shape=mxgraph.bpmn.shape;html=1;verticalLabelPosition=bottom;labelBackgroundColor=#ffffff;verticalAlign=top;perimeter=ellipsePerimeter;outline=end;symbol=general;" parent="1" vertex="1">
          <mxGeometry x="1530" y="411" width="50" height="50" as="geometry" />
        </mxCell>
        <mxCell id="BAjG6atXqVWXZ9zUJh5G-31" value="" style="edgeStyle=orthogonalEdgeStyle;rounded=0;orthogonalLoop=1;jettySize=auto;html=1;" edge="1" parent="1" source="7a84cebc1def654-29" target="BAjG6atXqVWXZ9zUJh5G-30">
          <mxGeometry relative="1" as="geometry">
            <Array as="points">
              <mxPoint x="941" y="580" />
            </Array>
          </mxGeometry>
        </mxCell>
        <mxCell id="7a84cebc1def654-29" value="testes" style="html=1;whiteSpace=wrap;rounded=1;" parent="1" vertex="1">
          <mxGeometry x="860" y="540" width="120" height="80" as="geometry" />
        </mxCell>
        <mxCell id="7a84cebc1def654-30" value="" style="html=1;shape=plus;" parent="7a84cebc1def654-29" vertex="1">
          <mxGeometry x="0.5" y="1" width="14" height="14" relative="1" as="geometry">
            <mxPoint x="-7" y="-14" as="offset" />
          </mxGeometry>
        </mxCell>
        <mxCell id="7a84cebc1def654-36" style="edgeStyle=orthogonalEdgeStyle;rounded=0;html=1;jettySize=auto;orthogonalLoop=1;" parent="1" source="7a84cebc1def654-1" target="7a84cebc1def654-2" edge="1">
          <mxGeometry relative="1" as="geometry" />
        </mxCell>
        <mxCell id="BAjG6atXqVWXZ9zUJh5G-9" value="link do youtube com explicação" style="shape=ext;rounded=1;html=1;whiteSpace=wrap;" vertex="1" parent="1">
          <mxGeometry x="840" y="105" width="120" height="80" as="geometry" />
        </mxCell>
        <mxCell id="BAjG6atXqVWXZ9zUJh5G-15" style="edgeStyle=orthogonalEdgeStyle;rounded=0;orthogonalLoop=1;jettySize=auto;html=1;exitX=0.5;exitY=1;exitDx=0;exitDy=0;entryX=0.5;entryY=0;entryDx=0;entryDy=0;" edge="1" parent="1" source="BAjG6atXqVWXZ9zUJh5G-11" target="BAjG6atXqVWXZ9zUJh5G-14">
          <mxGeometry relative="1" as="geometry" />
        </mxCell>
        <mxCell id="BAjG6atXqVWXZ9zUJh5G-17" style="edgeStyle=orthogonalEdgeStyle;rounded=0;orthogonalLoop=1;jettySize=auto;html=1;exitX=1;exitY=0.5;exitDx=0;exitDy=0;" edge="1" parent="1" source="BAjG6atXqVWXZ9zUJh5G-11" target="BAjG6atXqVWXZ9zUJh5G-9">
          <mxGeometry relative="1" as="geometry" />
        </mxCell>
        <mxCell id="BAjG6atXqVWXZ9zUJh5G-18" style="edgeStyle=orthogonalEdgeStyle;rounded=0;orthogonalLoop=1;jettySize=auto;html=1;exitX=0.5;exitY=0;exitDx=0;exitDy=0;entryX=0.5;entryY=0;entryDx=0;entryDy=0;" edge="1" parent="1" source="BAjG6atXqVWXZ9zUJh5G-11" target="7a84cebc1def654-2">
          <mxGeometry relative="1" as="geometry">
            <Array as="points">
              <mxPoint x="785" y="90" />
              <mxPoint x="420" y="90" />
            </Array>
          </mxGeometry>
        </mxCell>
        <mxCell id="BAjG6atXqVWXZ9zUJh5G-19" value="botão voltar" style="edgeLabel;html=1;align=center;verticalAlign=middle;resizable=0;points=[];" vertex="1" connectable="0" parent="BAjG6atXqVWXZ9zUJh5G-18">
          <mxGeometry x="-0.6518" relative="1" as="geometry">
            <mxPoint as="offset" />
          </mxGeometry>
        </mxCell>
        <mxCell id="BAjG6atXqVWXZ9zUJh5G-11" value="" style="shape=mxgraph.bpmn.shape;html=1;verticalLabelPosition=bottom;labelBackgroundColor=#ffffff;verticalAlign=top;perimeter=rhombusPerimeter;background=gateway;outline=none;symbol=parallelGw;" vertex="1" parent="1">
          <mxGeometry x="760" y="120" width="50" height="50" as="geometry" />
        </mxCell>
        <mxCell id="BAjG6atXqVWXZ9zUJh5G-14" value="ultimas noticias&lt;br&gt;(redirecionar para página do kadu)" style="shape=ext;rounded=1;html=1;whiteSpace=wrap;" vertex="1" parent="1">
          <mxGeometry x="840" y="225" width="120" height="80" as="geometry" />
        </mxCell>
        <mxCell id="BAjG6atXqVWXZ9zUJh5G-29" value="" style="edgeStyle=orthogonalEdgeStyle;rounded=0;orthogonalLoop=1;jettySize=auto;html=1;" edge="1" parent="1" source="BAjG6atXqVWXZ9zUJh5G-20" target="BAjG6atXqVWXZ9zUJh5G-27">
          <mxGeometry relative="1" as="geometry" />
        </mxCell>
        <mxCell id="BAjG6atXqVWXZ9zUJh5G-20" value="quem é você?&lt;br&gt;(tela 4)" style="shape=ext;rounded=1;html=1;whiteSpace=wrap;" vertex="1" parent="1">
          <mxGeometry x="780" y="396" width="120" height="80" as="geometry" />
        </mxCell>
        <mxCell id="BAjG6atXqVWXZ9zUJh5G-49" value="" style="edgeStyle=orthogonalEdgeStyle;rounded=0;orthogonalLoop=1;jettySize=auto;html=1;" edge="1" parent="1" source="BAjG6atXqVWXZ9zUJh5G-27" target="BAjG6atXqVWXZ9zUJh5G-48">
          <mxGeometry relative="1" as="geometry" />
        </mxCell>
        <mxCell id="BAjG6atXqVWXZ9zUJh5G-27" value="testes&lt;br&gt;(tela 5)&amp;nbsp;" style="html=1;whiteSpace=wrap;rounded=1;" vertex="1" parent="1">
          <mxGeometry x="980" y="396" width="120" height="80" as="geometry" />
        </mxCell>
        <mxCell id="BAjG6atXqVWXZ9zUJh5G-28" value="" style="html=1;shape=plus;" vertex="1" parent="BAjG6atXqVWXZ9zUJh5G-27">
          <mxGeometry x="0.5" y="1" width="14" height="14" relative="1" as="geometry">
            <mxPoint x="-7" y="-14" as="offset" />
          </mxGeometry>
        </mxCell>
        <mxCell id="BAjG6atXqVWXZ9zUJh5G-61" value="" style="edgeStyle=orthogonalEdgeStyle;rounded=0;orthogonalLoop=1;jettySize=auto;html=1;" edge="1" parent="1" source="BAjG6atXqVWXZ9zUJh5G-30" target="BAjG6atXqVWXZ9zUJh5G-33">
          <mxGeometry relative="1" as="geometry" />
        </mxCell>
        <mxCell id="BAjG6atXqVWXZ9zUJh5G-30" value="equilibrio" style="whiteSpace=wrap;html=1;rounded=1;" vertex="1" parent="1">
          <mxGeometry x="1050" y="550" width="120" height="60" as="geometry" />
        </mxCell>
        <mxCell id="BAjG6atXqVWXZ9zUJh5G-62" value="" style="edgeStyle=orthogonalEdgeStyle;rounded=0;orthogonalLoop=1;jettySize=auto;html=1;" edge="1" parent="1" source="BAjG6atXqVWXZ9zUJh5G-33" target="BAjG6atXqVWXZ9zUJh5G-36">
          <mxGeometry relative="1" as="geometry" />
        </mxCell>
        <mxCell id="BAjG6atXqVWXZ9zUJh5G-33" value="locomoção" style="whiteSpace=wrap;html=1;rounded=1;" vertex="1" parent="1">
          <mxGeometry x="1240" y="550" width="120" height="60" as="geometry" />
        </mxCell>
        <mxCell id="BAjG6atXqVWXZ9zUJh5G-63" value="" style="edgeStyle=orthogonalEdgeStyle;rounded=0;orthogonalLoop=1;jettySize=auto;html=1;" edge="1" parent="1" source="BAjG6atXqVWXZ9zUJh5G-36" target="BAjG6atXqVWXZ9zUJh5G-39">
          <mxGeometry relative="1" as="geometry" />
        </mxCell>
        <mxCell id="BAjG6atXqVWXZ9zUJh5G-36" value="manipulação" style="whiteSpace=wrap;html=1;rounded=1;" vertex="1" parent="1">
          <mxGeometry x="1420" y="550" width="120" height="60" as="geometry" />
        </mxCell>
        <mxCell id="BAjG6atXqVWXZ9zUJh5G-39" value="locomoção" style="whiteSpace=wrap;html=1;rounded=1;" vertex="1" parent="1">
          <mxGeometry x="1600" y="550" width="120" height="60" as="geometry" />
        </mxCell>
        <mxCell id="BAjG6atXqVWXZ9zUJh5G-65" value="" style="edgeStyle=orthogonalEdgeStyle;rounded=0;orthogonalLoop=1;jettySize=auto;html=1;" edge="1" parent="1" source="BAjG6atXqVWXZ9zUJh5G-48" target="BAjG6atXqVWXZ9zUJh5G-64">
          <mxGeometry relative="1" as="geometry" />
        </mxCell>
        <mxCell id="BAjG6atXqVWXZ9zUJh5G-48" value="prévia dos resultados" style="shape=ext;rounded=1;html=1;whiteSpace=wrap;" vertex="1" parent="1">
          <mxGeometry x="1170" y="396" width="120" height="80" as="geometry" />
        </mxCell>
        <mxCell id="BAjG6atXqVWXZ9zUJh5G-66" value="" style="edgeStyle=orthogonalEdgeStyle;rounded=0;orthogonalLoop=1;jettySize=auto;html=1;" edge="1" parent="1" source="BAjG6atXqVWXZ9zUJh5G-64" target="7a84cebc1def654-26">
          <mxGeometry relative="1" as="geometry" />
        </mxCell>
        <mxCell id="BAjG6atXqVWXZ9zUJh5G-64" value="resultados" style="shape=ext;rounded=1;html=1;whiteSpace=wrap;" vertex="1" parent="1">
          <mxGeometry x="1350" y="396" width="120" height="80" as="geometry" />
        </mxCell>
      </root>
    </mxGraphModel>
  </diagram>
</mxfile>
